<svg width="165" height="24" viewBox="0 0 165 24" fill="none" xmlns="http://www.w3.org/2000/svg">
<path d="M21.2114 0C20.902 0.549329 20.6241 1.1176 20.3716 1.6985C17.9722 1.3386 15.5286 1.3386 13.123 1.6985C12.8767 1.1176 12.5926 0.549329 12.2832 0C10.029 0.385162 7.83172 1.06077 5.74805 2.01421C1.61862 8.1326 0.501015 14.0931 1.05666 19.9716C3.47497 21.7585 6.18373 23.1223 9.06929 23.9937C9.71964 23.1223 10.2942 22.1942 10.7867 21.2281C9.85224 20.8808 8.94932 20.4451 8.08428 19.94C8.31159 19.7758 8.53259 19.6054 8.74727 19.4412C13.8175 21.8279 19.6896 21.8279 24.7662 19.4412C24.9809 19.618 25.2019 19.7885 25.4292 19.94C24.5642 20.4515 23.6612 20.8808 22.7204 21.2344C23.2129 22.2005 23.7875 23.1287 24.4379 24C27.3234 23.1287 30.0322 21.7711 32.4505 19.9842C33.1072 13.165 31.3266 7.25493 27.7465 2.02052C25.6691 1.06709 23.4718 0.391476 21.2177 0.0126283L21.2114 0ZM11.4939 16.3536C9.93432 16.3536 8.63993 14.9392 8.63993 13.1902C8.63993 11.4412 9.88381 10.0205 11.4876 10.0205C13.0914 10.0205 14.3668 11.4475 14.3416 13.1902C14.3163 14.9329 13.0851 16.3536 11.4939 16.3536ZM22.0133 16.3536C20.4473 16.3536 19.1656 14.9392 19.1656 13.1902C19.1656 11.4412 20.4095 10.0205 22.0133 10.0205C23.617 10.0205 24.8862 11.4475 24.8609 13.1902C24.8357 14.9329 23.6044 16.3536 22.0133 16.3536ZM63.0695 4.382C61.4973 3.67482 59.5778 3.32123 57.3047 3.32123H47.884V20.2368H56.6291C59.0916 20.2368 61.1563 19.8579 62.8232 19.1002C64.3449 18.4688 65.6393 17.3954 66.5486 16.0189C67.3631 14.7182 67.7861 13.2092 67.7672 11.6748C67.7924 10.1468 67.3884 8.64404 66.5928 7.33702C65.7467 6.01736 64.5154 4.98185 63.0695 4.37569V4.382ZM60.064 14.7877C59.2431 15.5517 58.0687 15.9369 56.5344 15.9369H53.9266V7.62747H56.8753C58.3528 7.62747 59.4641 8 60.2029 8.72612C60.9543 9.50908 61.352 10.5698 61.3015 11.6622C61.3584 12.8366 60.9101 13.9732 60.0703 14.794L60.064 14.7877ZM92.1208 12.9187C92.8911 13.6069 93.2763 14.6172 93.2826 15.9495C93.3078 17.3702 92.5754 18.7024 91.3568 19.4412C90.0876 20.2936 88.2692 20.723 85.9077 20.7167C84.5501 20.7167 83.1989 20.5462 81.8856 20.2115C80.6417 19.9021 79.4546 19.4033 78.356 18.7403V14.7309C79.3157 15.4254 80.3891 15.9369 81.532 16.2399C82.7822 16.6188 84.0829 16.8208 85.3899 16.8272C85.8382 16.8524 86.2928 16.7703 86.7096 16.5998C87.0063 16.4483 87.1516 16.2526 87.1516 16.0568C87.1579 15.8295 87.0695 15.6148 86.9116 15.4507C86.6338 15.2423 86.3118 15.0971 85.9708 15.0403L83.0726 14.3899C81.412 14.0047 80.2313 13.468 79.5367 12.7861C78.8296 12.0726 78.4507 11.0939 78.5012 10.09C78.4886 9.19337 78.8169 8.32202 79.4168 7.65272C80.1303 6.89503 81.0332 6.3457 82.0245 6.04893C83.3063 5.64483 84.6449 5.45541 85.9898 5.48066C87.2463 5.46804 88.4965 5.61326 89.7088 5.91634C90.6938 6.14996 91.6346 6.52249 92.5123 7.02762V10.8224C91.6914 10.3489 90.8075 9.98264 89.8919 9.74901C88.8943 9.48382 87.8651 9.34491 86.8359 9.34491C85.3205 9.34491 84.5628 9.60379 84.5628 10.1152C84.5628 10.3489 84.6954 10.5635 84.91 10.6582C85.3268 10.835 85.7561 10.9613 86.1981 11.0308L88.6164 11.4665C90.1824 11.7443 91.3568 12.2242 92.1271 12.9187H92.1208ZM108.159 15.7095C108.866 15.5075 109.541 15.217 110.173 14.8508V19.1318C108.304 20.2178 106.17 20.7735 104.01 20.7293C102.28 20.7735 100.556 20.4262 98.9842 19.7064C97.6898 19.1129 96.6038 18.1531 95.8524 16.9471C95.1516 15.7601 94.7917 14.4088 94.8169 13.0324C94.798 11.6559 95.1768 10.3047 95.9029 9.14286C96.6796 7.9558 97.7909 7.02131 99.0916 6.45304C100.676 5.7648 102.388 5.43015 104.118 5.47435C106.536 5.47435 108.538 5.97948 110.135 6.99605V11.4223C109.529 11.0118 108.866 10.6961 108.165 10.4815C107.382 10.2352 106.568 10.1152 105.747 10.1215C104.25 10.1215 103.076 10.3931 102.23 10.9424C101.043 11.6054 100.613 13.1081 101.276 14.3015C101.491 14.6867 101.813 15.0087 102.192 15.236C103.013 15.7916 104.206 16.0695 105.766 16.0695C106.574 16.0695 107.376 15.9558 108.146 15.7222L108.159 15.7095ZM126.047 6.44672C122.871 5.15864 119.316 5.15864 116.14 6.44672C114.845 7.015 113.747 7.94317 112.964 9.1176C112.225 10.2794 111.84 11.6243 111.865 13.0008C111.846 14.3899 112.231 15.7601 112.964 16.9408C113.74 18.1468 114.852 19.1066 116.159 19.7001C119.316 21.045 122.883 21.045 126.04 19.6938C127.341 19.1002 128.446 18.1405 129.216 16.9345C129.942 15.7474 130.321 14.3836 130.302 12.9945C130.328 11.618 129.949 10.2668 129.216 9.10497C128.44 7.93686 127.341 7.00868 126.053 6.44672H126.047ZM123.496 15.4128C122.845 16.0253 121.974 16.3473 121.077 16.2904C120.187 16.3346 119.316 16.0189 118.659 15.4128C118.059 14.7877 117.737 13.9479 117.781 13.0766C117.737 12.2178 118.059 11.3844 118.659 10.7719C119.316 10.1721 120.187 9.86898 121.077 9.91318C121.968 9.86267 122.839 10.1721 123.496 10.7719C124.102 11.3844 124.424 12.2178 124.38 13.0766C124.418 13.9416 124.102 14.7877 123.496 15.4128ZM142.621 5.77743C143.392 5.75848 144.156 5.95422 144.818 6.35833V11.5864C144.099 11.1571 143.265 10.9487 142.425 10.9803C141.137 10.9803 140.146 11.3717 139.451 12.1547C138.763 12.9376 138.416 14.15 138.416 15.7916V20.2368H132.493V6.09945H138.29V10.5888C138.612 8.94712 139.129 7.73481 139.849 6.95186C140.556 6.17522 141.56 5.74586 142.609 5.77743H142.621ZM158.571 2.83504V9.13654C157.605 6.68666 155.71 5.46172 152.894 5.46172C151.606 5.44278 150.337 5.78374 149.232 6.45304C148.159 7.12234 147.294 8.07577 146.744 9.21231C146.144 10.4562 145.848 11.82 145.892 13.1965C145.867 14.5288 146.144 15.8421 146.7 17.0545C147.205 18.1468 148.013 19.0813 149.024 19.738C150.072 20.4009 151.29 20.7419 152.528 20.7167C153.848 20.7545 155.148 20.4325 156.291 19.7758C157.327 19.1381 158.129 18.1847 158.577 17.0545V20.2305H164.5V2.83504H158.577H158.571ZM157.699 15.3307C157.043 15.9369 156.171 16.2463 155.281 16.1957C154.41 16.2399 153.557 15.9242 152.913 15.3307C152.307 14.7435 151.979 13.9227 152.01 13.0766C151.979 12.2368 152.301 11.4286 152.907 10.8414C154.302 9.70481 156.304 9.70481 157.699 10.8414C158.305 11.4096 158.634 12.2115 158.609 13.045C158.64 13.8974 158.312 14.7309 157.699 15.3307ZM75.7104 4.95659C75.7104 6.42147 74.3907 7.60852 72.7617 7.60852C71.1326 7.60852 69.813 6.42147 69.813 4.95659C69.813 3.49171 71.1326 2.30466 72.7617 2.30466C74.3907 2.30466 75.7104 3.49171 75.7104 4.95659ZM75.7104 9.43331V20.3125H69.8067V9.43331C71.6946 10.2289 73.8224 10.2289 75.7104 9.43331Z" fill="white"/>
</svg>